<?xml version="1.0" standalone="no"?>
<!DOCTYPE svg PUBLIC "-//W3C//DTD SVG 20010904//EN"
 "http://www.w3.org/TR/2001/REC-SVG-20010904/DTD/svg10.dtd">
<svg version="1.0" xmlns="http://www.w3.org/2000/svg"
 width="700.000000pt" height="700.000000pt" viewBox="0 0 700.000000 700.000000"
 preserveAspectRatio="xMidYMid meet">
<metadata>
Created by potrace 1.11, written by Peter Selinger 2001-2013
</metadata>
<g transform="translate(0.000000,700.000000) scale(0.100000,-0.100000)"
fill="#000000" stroke="none">
<path d="M755 6778 c-146 -19 -272 -78 -375 -177 -99 -97 -157 -199 -192 -336
-19 -75 -18 -5456 1 -5535 19 -79 93 -227 143 -284 103 -117 249 -198 398
-222 56 -8 5492 -8 5540 1 99 17 210 62 278 112 134 97 239 263 265 418 11 65
13 570 11 2770 -1 1480 -4 2701 -8 2715 -3 14 -9 39 -12 55 -2 17 -25 72 -50
123 -93 192 -284 331 -491 358 -76 10 -5430 11 -5508 2z m1010 -1867 c20 -1
20 -8 20 -1148 l0 -1148 23 -36 c42 -69 57 -73 251 -79 l174 -5 1 -902 c1
-894 1 -902 -19 -905 -11 -2 -337 -3 -725 -2 -655 0 -707 2 -739 18 -40 21
-79 61 -94 96 -7 17 -11 655 -11 2070 l-1 2045 550 -1 c302 -1 559 -2 570 -3z
m2085 -1153 c5 -1149 5 -1157 26 -1184 48 -66 59 -69 249 -72 l173 -3 0 -904
0 -903 -21 -4 c-18 -3 -1536 -2 -1559 1 -5 1 -8 408 -8 905 l0 905 169 3 c185
3 197 7 245 72 21 27 21 34 24 1174 1 631 4 1152 6 1157 2 6 127 10 347 10
l344 -1 5 -1156z m2505 -889 l0 -2044 -25 -43 c-15 -27 -42 -54 -69 -70 l-44
-26 -720 0 c-409 -1 -721 3 -724 8 -5 7 -8 1655 -4 1779 l1 27 158 0 c184 0
223 12 263 76 l24 39 1 1140 c1 627 2 1145 3 1150 1 7 197 10 568 9 l568 0 0
-2045z"/>
</g>
</svg>
