<?xml version="1.0" standalone="no"?>
<!DOCTYPE svg PUBLIC "-//W3C//DTD SVG 20010904//EN"
 "http://www.w3.org/TR/2001/REC-SVG-20010904/DTD/svg10.dtd">
<svg version="1.0" xmlns="http://www.w3.org/2000/svg"
 width="320.000000pt" height="320.000000pt" viewBox="0 0 320.000000 320.000000"
 preserveAspectRatio="xMidYMid meet">
<metadata>
Created by potrace 1.11, written by Peter Selinger 2001-2013
</metadata>
<g transform="translate(0.000000,320.000000) scale(0.100000,-0.100000)"
fill="#000000" stroke="none">
<path d="M864 1983 c1 -27 9 -61 17 -78 24 -45 58 -172 85 -325 54 -297 106
-410 189 -410 76 0 135 100 171 285 51 270 90 429 114 465 24 38 57 -57 111
-322 52 -259 80 -347 123 -393 67 -71 149 -34 196 90 12 33 40 145 61 249 62
300 89 391 113 383 20 -7 48 -99 88 -292 22 -104 42 -201 44 -215 9 -50 46
-156 66 -188 23 -37 55 -62 79 -62 14 0 17 9 15 49 -1 27 -7 55 -13 62 -18 22
-50 141 -83 309 -38 195 -67 304 -92 354 -72 142 -187 107 -241 -74 -21 -71
-50 -200 -74 -329 -24 -132 -67 -271 -84 -271 -24 0 -53 99 -105 355 -40 201
-57 263 -90 326 -63 125 -171 102 -224 -48 -13 -37 -25 -72 -27 -78 -18 -81
-36 -165 -39 -185 -32 -182 -86 -370 -105 -370 -20 0 -50 97 -89 288 -52 254
-68 315 -97 379 -25 55 -64 93 -93 93 -15 0 -18 -8 -16 -47z"/>
</g>
</svg>
