<?xml version="1.0" standalone="no"?>
<!DOCTYPE svg PUBLIC "-//W3C//DTD SVG 20010904//EN"
 "http://www.w3.org/TR/2001/REC-SVG-20010904/DTD/svg10.dtd">
<svg version="1.0" xmlns="http://www.w3.org/2000/svg"
 width="320.000000pt" height="320.000000pt" viewBox="0 0 320.000000 320.000000"
 preserveAspectRatio="xMidYMid meet">
<metadata>
Created by potrace 1.11, written by Peter Selinger 2001-2013
</metadata>
<g transform="translate(0.000000,320.000000) scale(0.100000,-0.100000)"
fill="#000000" stroke="none">
<path d="M2418 3195 c-2 -1 -26 -5 -54 -9 -146 -17 -348 -108 -489 -219 -187
-149 -401 -451 -470 -667 0 -3 -15 -48 -32 -100 -52 -160 -82 -332 -88 -506
l-3 -98 -49 -11 c-180 -42 -367 -175 -476 -341 -304 -462 -64 -1075 478 -1221
82 -22 262 -26 348 -8 317 68 559 307 628 620 21 98 19 280 -6 370 -78 290
-311 516 -595 580 -107 24 -104 21 -101 96 14 363 140 712 341 949 54 64 65
76 131 135 72 64 209 143 284 164 44 12 60 6 160 -57 64 -40 94 -47 120 -28
18 13 20 27 21 163 2 186 -1 193 -85 192 -33 -1 -61 -2 -63 -4z"/>
</g>
</svg>
